<?xml version="1.0" standalone="no"?>
<!DOCTYPE svg PUBLIC "-//W3C//DTD SVG 20010904//EN"
 "http://www.w3.org/TR/2001/REC-SVG-20010904/DTD/svg10.dtd">
<svg version="1.0" xmlns="http://www.w3.org/2000/svg"
 width="64.000000pt" height="64.000000pt" viewBox="0 0 64.000000 64.000000"
 preserveAspectRatio="xMidYMid meet">

<g transform="translate(0.000000,64.000000) scale(0.100000,-0.100000)"
fill="#000000" stroke="none">
<path d="M253 583 c-9 -3 -13 -28 -13 -73 0 -57 3 -71 18 -79 27 -15 42 5 42
56 l0 43 115 0 115 0 0 -210 0 -210 -115 0 -115 0 0 43 c0 51 -15 71 -42 56
-25 -13 -27 -143 -2 -153 31 -12 309 -7 322 6 17 17 17 499 0 516 -12 12 -297
17 -325 5z"/>
<path d="M110 385 l-64 -65 64 -65 c35 -36 70 -65 78 -65 27 0 24 32 -7 64
-17 17 -31 35 -31 39 0 4 75 4 168 0 148 -5 169 -4 181 11 11 13 11 19 0 32
-12 15 -33 16 -181 11 -93 -4 -168 -4 -168 0 0 4 14 22 31 39 31 32 34 64 7
64 -8 0 -43 -29 -78 -65z"/>
</g>
</svg>
